<?xml version="1.0" standalone="no"?>
<!DOCTYPE svg PUBLIC "-//W3C//DTD SVG 20010904//EN"
 "http://www.w3.org/TR/2001/REC-SVG-20010904/DTD/svg10.dtd">
<svg version="1.0" xmlns="http://www.w3.org/2000/svg"
 width="225.000000pt" height="225.000000pt" viewBox="0 0 225.000000 225.000000"
 preserveAspectRatio="xMidYMid meet">
<metadata>
Created by potrace 1.14, written by Peter Selinger 2001-2017
</metadata>
<g transform="translate(0.000000,225.000000) scale(0.100000,-0.100000)"
fill="#000000" stroke="none">
<path d="M1048 2175 c-118 -44 -182 -168 -148 -290 16 -57 78 -128 130 -149
37 -15 40 -18 40 -56 l0 -40 55 0 55 0 0 39 c0 37 3 41 45 61 91 44 144 140
132 241 -18 149 -171 245 -309 194z m150 -126 c48 -30 61 -103 30 -162 -14
-27 -69 -57 -103 -57 -35 0 -89 30 -104 58 -18 34 -20 88 -4 118 19 39 25 43
68 59 40 13 74 8 113 -16z"/>
<path d="M365 1770 c-153 -34 -237 -198 -169 -333 68 -134 219 -173 348 -90
38 25 39 25 72 7 37 -20 39 -19 73 38 l22 37 -33 21 c-31 19 -33 23 -34 78 -3
157 -136 273 -279 242z m105 -126 c55 -33 76 -105 46 -163 -22 -41 -59 -61
-112 -61 -39 0 -51 5 -80 34 -29 29 -34 41 -34 80 0 27 7 58 16 72 34 52 110
69 164 38z"/>
<path d="M1800 1771 c-80 -16 -150 -76 -180 -156 -7 -16 -12 -56 -12 -88 0
-53 -2 -59 -29 -73 -16 -8 -29 -19 -29 -26 0 -9 33 -69 47 -88 2 -2 19 4 38
14 33 18 34 18 64 -3 150 -107 353 -20 376 160 19 153 -124 288 -275 260z m99
-125 c41 -22 61 -59 61 -112 0 -39 -5 -51 -34 -80 -29 -29 -41 -34 -80 -34
-78 0 -126 49 -126 126 0 29 8 44 39 75 43 43 88 51 140 25z"/>
<path d="M1070 1506 c0 -31 -4 -36 -37 -47 -58 -18 -105 -44 -143 -80 -34 -31
-35 -32 -64 -15 -16 9 -30 15 -31 14 -1 -2 -14 -24 -29 -50 l-27 -47 30 -16
c27 -14 30 -19 24 -43 -10 -34 -9 -159 0 -192 7 -21 3 -28 -22 -43 l-29 -17
25 -45 c26 -48 38 -53 68 -31 18 13 23 11 57 -20 43 -38 98 -68 146 -79 28 -6
32 -10 32 -40 0 -37 8 -42 65 -41 39 1 40 2 43 39 2 27 8 37 20 37 29 0 116
45 156 81 38 33 39 33 67 16 l29 -16 30 47 c31 49 31 48 -14 77 -13 8 -14 17
-5 55 11 45 7 150 -6 182 -5 12 2 21 25 33 l31 16 -27 49 c-15 28 -30 50 -33
50 -4 0 -17 -7 -29 -16 -21 -14 -25 -13 -65 19 -46 38 -107 70 -149 81 -24 5
-28 11 -28 41 l0 35 -55 0 -55 0 0 -34z m157 -170 c80 -41 125 -117 126 -211
1 -130 -97 -226 -230 -226 -171 0 -280 181 -201 335 20 40 24 44 65 79 55 47
172 59 240 23z"/>
<path d="M355 941 c-133 -35 -209 -164 -171 -292 77 -264 462 -207 458 68 -1
60 0 63 34 83 20 13 31 26 27 33 -4 7 -17 29 -30 50 l-24 38 -31 -22 c-29 -21
-32 -21 -57 -5 -68 44 -147 63 -206 47z m121 -127 c98 -65 51 -224 -66 -224
-71 0 -120 53 -120 131 0 33 6 47 34 75 29 29 41 34 80 34 27 0 58 -7 72 -16z"/>
<path d="M1773 936 c-22 -7 -55 -23 -73 -36 -31 -22 -32 -22 -66 -4 -37 20
-39 19 -73 -38 l-21 -36 34 -21 c33 -21 34 -23 34 -84 0 -137 99 -239 231
-239 209 1 314 243 172 395 -57 62 -159 89 -238 63z m147 -133 c86 -77 31
-213 -86 -213 -29 0 -44 8 -75 39 -44 43 -51 88 -24 141 33 64 131 81 185 33z"/>
<path d="M1075 611 c-3 -2 -5 -21 -5 -42 0 -34 -4 -39 -45 -59 -120 -58 -168
-199 -109 -319 85 -170 327 -171 417 -1 61 117 10 270 -109 320 -40 18 -43 22
-46 62 l-3 43 -48 0 c-26 1 -50 -1 -52 -4z m113 -211 c105 -64 56 -226 -67
-222 -86 3 -140 87 -107 166 17 41 68 76 111 76 17 0 45 -9 63 -20z"/>
</g>
</svg>
